<svg xmlns="http://www.w3.org/2000/svg" width="64" height="64" viewBox="0 0 64 64"><title>Báo giá</title><defs><linearGradient id="wood" x1="0" y1="0" x2="1" y2="1"><stop stop-color="#EDC080"/><stop offset="1" stop-color="#BC7F3D"/></linearGradient><linearGradient id="top" x1="0" y1="0" x2="1" y2="1"><stop stop-color="#FFE0A0"/><stop offset="1" stop-color="#D9A15A"/></linearGradient><linearGradient id="side" x1="0" y1="0" x2="1" y2="1"><stop stop-color="#B97F3C"/><stop offset="1" stop-color="#795028"/></linearGradient><linearGradient id="metal" x1="0" y1="0" x2="1" y2="1"><stop stop-color="#E9F1F7"/><stop offset="1" stop-color="#8B9EAD"/></linearGradient><linearGradient id="blue" x1="0" y1="0" x2="1" y2="1"><stop stop-color="#40BBF2"/><stop offset="1" stop-color="#1555A4"/></linearGradient><linearGradient id="teal" x1="0" y1="0" x2="1" y2="1"><stop stop-color="#59D2CE"/><stop offset="1" stop-color="#178B99"/></linearGradient><linearGradient id="purple" x1="0" y1="0" x2="1" y2="1"><stop stop-color="#B5A0E6"/><stop offset="1" stop-color="#7650B3"/></linearGradient><linearGradient id="paper" x1="0" y1="0" x2="1" y2="1"><stop stop-color="#FFFFFF"/><stop offset="1" stop-color="#DFE5F2"/></linearGradient></defs><ellipse cx="32" cy="58" rx="23" ry="3" fill="#20384B" opacity=".12"/><g stroke="#435C70" stroke-width="1.7" stroke-linecap="round" stroke-linejoin="round"><path d="M27 9H51L58 16V53H27Z" fill="url(#paper)" stroke="#7890A5" stroke-width="1.1" stroke-linejoin="round"/><path d="M10 17H37V57H10Z" fill="url(#metal)" stroke="#465D70" stroke-width="1.1" stroke-linejoin="round"/><path d="M15 22H32V31H15Z" fill="#E8F9FB" stroke="#465D70" stroke-width="1.1" stroke-linejoin="round"/><path d="M15 36H20V41H15Z" fill="#F3F6F8" stroke="#60717F" stroke-width="0.7" stroke-linejoin="round"/><path d="M15 45H20V50H15Z" fill="#F3F6F8" stroke="#60717F" stroke-width="0.7" stroke-linejoin="round"/><path d="M25 36H30V41H25Z" fill="#ECAA54" stroke="#60717F" stroke-width="0.7" stroke-linejoin="round"/><path d="M25 45H30V50H25Z" fill="#ECAA54" stroke="#60717F" stroke-width="0.7" stroke-linejoin="round"/></g></svg>