<svg xmlns="http://www.w3.org/2000/svg" width="64" height="64" viewBox="0 0 64 64"><title>DIM tự động</title><defs><linearGradient id="wood" x1="0" y1="0" x2="1" y2="1"><stop stop-color="#EDC080"/><stop offset="1" stop-color="#BC7F3D"/></linearGradient><linearGradient id="top" x1="0" y1="0" x2="1" y2="1"><stop stop-color="#FFE0A0"/><stop offset="1" stop-color="#D9A15A"/></linearGradient><linearGradient id="side" x1="0" y1="0" x2="1" y2="1"><stop stop-color="#B97F3C"/><stop offset="1" stop-color="#795028"/></linearGradient><linearGradient id="metal" x1="0" y1="0" x2="1" y2="1"><stop stop-color="#E9F1F7"/><stop offset="1" stop-color="#8B9EAD"/></linearGradient><linearGradient id="blue" x1="0" y1="0" x2="1" y2="1"><stop stop-color="#40BBF2"/><stop offset="1" stop-color="#1555A4"/></linearGradient><linearGradient id="teal" x1="0" y1="0" x2="1" y2="1"><stop stop-color="#59D2CE"/><stop offset="1" stop-color="#178B99"/></linearGradient><linearGradient id="purple" x1="0" y1="0" x2="1" y2="1"><stop stop-color="#B5A0E6"/><stop offset="1" stop-color="#7650B3"/></linearGradient><linearGradient id="paper" x1="0" y1="0" x2="1" y2="1"><stop stop-color="#FFFFFF"/><stop offset="1" stop-color="#DFE5F2"/></linearGradient></defs><ellipse cx="32" cy="58" rx="23" ry="3" fill="#20384B" opacity=".12"/><g stroke="#435C70" stroke-width="1.7" stroke-linecap="round" stroke-linejoin="round"><g transform="translate(7 15) scale(.72)"><g transform="translate(0 0)"><path d="M12 21L32 10 53 21 32 33Z" fill="url(#top)" stroke="#795633" stroke-width="1.1" stroke-linejoin="round"/><path d="M12 21L32 33V56L12 44Z" fill="url(#wood)" stroke="#795633" stroke-width="1.1" stroke-linejoin="round"/><path d="M32 33L53 21V44L32 56Z" fill="url(#side)" stroke="#795633" stroke-width="1.1" stroke-linejoin="round"/><path d="M17 28L28 35M17 34L28 41M37 35L48 29" fill="none" stroke="#B27A3F" stroke-width="0.7" stroke-linejoin="round"/></g></g><path d="M13 9H48M13 5V13M48 5V13M56 26V54M52 26H60M52 54H60" fill="none" stroke="#167EC4" stroke-width="2" stroke-linejoin="round"/></g></svg>