<svg xmlns="http://www.w3.org/2000/svg" width="64" height="64" viewBox="0 0 64 64"><title>Ngăn kéo</title><defs><linearGradient id="wood" x1="0" y1="0" x2="1" y2="1"><stop stop-color="#A8D8FF"/><stop offset="1" stop-color="#55AAFF"/></linearGradient><linearGradient id="top" x1="0" y1="0" x2="1" y2="1"><stop stop-color="#FFFFFF"/><stop offset="1" stop-color="#55AAFF"/></linearGradient><linearGradient id="side" x1="0" y1="0" x2="1" y2="1"><stop stop-color="#55AAFF"/><stop offset="1" stop-color="#1D78D2"/></linearGradient><linearGradient id="metal" x1="0" y1="0" x2="1" y2="1"><stop stop-color="#FFFFFF"/><stop offset="1" stop-color="#55AAFF"/></linearGradient><linearGradient id="blue" x1="0" y1="0" x2="1" y2="1"><stop stop-color="#55AAFF"/><stop offset="1" stop-color="#1D78D2"/></linearGradient><linearGradient id="teal" x1="0" y1="0" x2="1" y2="1"><stop stop-color="#A8D8FF"/><stop offset="1" stop-color="#55AAFF"/></linearGradient><linearGradient id="purple" x1="0" y1="0" x2="1" y2="1"><stop stop-color="#55AAFF"/><stop offset="1" stop-color="#1D78D2"/></linearGradient><linearGradient id="paper" x1="0" y1="0" x2="1" y2="1"><stop stop-color="#FFFFFF"/><stop offset="1" stop-color="#FFFFFF"/></linearGradient></defs><ellipse cx="32" cy="58" rx="23" ry="3" fill="#0A3D7A" opacity=".12"/><g stroke="#1D78D2" stroke-width="1.7" stroke-linecap="round" stroke-linejoin="round"><path d="M8 22L30 10 56 23 34 36Z" fill="url(#top)" stroke="#1D78D2" stroke-width="1.1" stroke-linejoin="round"/><path d="M13 23L30 15 50 24 34 31Z" fill="#1D78D2" stroke="#1D78D2" stroke-width="1.1" stroke-linejoin="round"/><path d="M13 23L30 15V24L22 28Z" fill="url(#side)" stroke="#1D78D2" stroke-width="1.1" stroke-linejoin="round"/><path d="M8 22L34 36V55L8 41Z" fill="url(#wood)" stroke="#1D78D2" stroke-width="1.1" stroke-linejoin="round"/><path d="M34 36L56 23V42L34 55Z" fill="url(#side)" stroke="#1D78D2" stroke-width="1.1" stroke-linejoin="round"/><path d="M15 34L27 40V44L15 38Z" fill="url(#metal)" stroke="#1D78D2" stroke-width="1.1" stroke-linejoin="round"/><path d="M41 38L52 32M41 42L52 36" fill="none" stroke="#A8D8FF" stroke-width="2" stroke-linejoin="round"/></g></svg>