<svg xmlns="http://www.w3.org/2000/svg" width="64" height="64" viewBox="0 0 64 64"><title>Co giãn khối</title><defs><linearGradient id="wood" x1="0" y1="0" x2="1" y2="1"><stop stop-color="#A8D8FF"/><stop offset="1" stop-color="#55AAFF"/></linearGradient><linearGradient id="top" x1="0" y1="0" x2="1" y2="1"><stop stop-color="#FFFFFF"/><stop offset="1" stop-color="#55AAFF"/></linearGradient><linearGradient id="side" x1="0" y1="0" x2="1" y2="1"><stop stop-color="#55AAFF"/><stop offset="1" stop-color="#1D78D2"/></linearGradient><linearGradient id="metal" x1="0" y1="0" x2="1" y2="1"><stop stop-color="#FFFFFF"/><stop offset="1" stop-color="#55AAFF"/></linearGradient><linearGradient id="blue" x1="0" y1="0" x2="1" y2="1"><stop stop-color="#55AAFF"/><stop offset="1" stop-color="#1D78D2"/></linearGradient><linearGradient id="teal" x1="0" y1="0" x2="1" y2="1"><stop stop-color="#A8D8FF"/><stop offset="1" stop-color="#55AAFF"/></linearGradient><linearGradient id="purple" x1="0" y1="0" x2="1" y2="1"><stop stop-color="#55AAFF"/><stop offset="1" stop-color="#1D78D2"/></linearGradient><linearGradient id="paper" x1="0" y1="0" x2="1" y2="1"><stop stop-color="#FFFFFF"/><stop offset="1" stop-color="#FFFFFF"/></linearGradient></defs><ellipse cx="32" cy="58" rx="23" ry="3" fill="#0A3D7A" opacity=".12"/><g stroke="#1D78D2" stroke-width="1.7" stroke-linecap="round" stroke-linejoin="round"><g transform="translate(7 3) scale(.78)"><g transform="translate(0 0)"><path d="M12 21L32 10 53 21 32 33Z" fill="url(#top)" stroke="#1D78D2" stroke-width="1.1" stroke-linejoin="round"/><path d="M12 21L32 33V56L12 44Z" fill="url(#wood)" stroke="#1D78D2" stroke-width="1.1" stroke-linejoin="round"/><path d="M32 33L53 21V44L32 56Z" fill="url(#side)" stroke="#1D78D2" stroke-width="1.1" stroke-linejoin="round"/><path d="M17 28L28 35M17 34L28 41M37 35L48 29" fill="none" stroke="#55AAFF" stroke-width="0.7" stroke-linejoin="round"/></g></g><path d="M4 35L13 25V31H23V40H13V46ZM60 35L51 25V31H41V40H51V46Z" fill="url(#teal)" stroke="#1D78D2" stroke-width="1.1" stroke-linejoin="round"/></g></svg>